<svg width="15" height="15" viewBox="0 0 15 15" fill="none" xmlns="http://www.w3.org/2000/svg">
<path fill-rule="evenodd" clip-rule="evenodd" d="M15 5.75954C15 5.91905 14.8828 6.06969 14.7656 6.18488L11.4934 9.3217L12.2686 13.7522C12.2777 13.8142 12.2777 13.8674 12.2777 13.9294C12.2777 14.1599 12.1695 14.3725 11.908 14.3725C11.7818 14.3725 11.6557 14.3282 11.5475 14.2662L7.5 12.175L3.45252 14.2662C3.33533 14.3282 3.21815 14.3725 3.09195 14.3725C2.83053 14.3725 2.71334 14.1599 2.71334 13.9294C2.71334 13.8674 2.72236 13.8142 2.73137 13.7522L3.50661 9.3217L0.225361 6.18488C0.117187 6.06969 0 5.91905 0 5.75954C0 5.49372 0.279447 5.38738 0.504808 5.35194L5.03005 4.70508L7.0583 0.673301C7.13943 0.50494 7.29267 0.309998 7.5 0.309998C7.70733 0.309998 7.86058 0.50494 7.9417 0.673301L9.96994 4.70508L14.4952 5.35194C14.7115 5.38738 15 5.49372 15 5.75954Z" fill="black"/>
</svg>
